<mxfile host="65bd71144e">
    <diagram id="HIP3nbAZw_EuaXWnEj3U" name="Page-1">
        <mxGraphModel dx="1086" dy="658" grid="1" gridSize="10" guides="1" tooltips="1" connect="1" arrows="1" fold="1" page="1" pageScale="1" pageWidth="850" pageHeight="1100" math="0" shadow="0">
            <root>
                <mxCell id="0"/>
                <mxCell id="1" parent="0"/>
                <mxCell id="7" value="http://ics2o.mths.ca" style="swimlane;whiteSpace=wrap;html=1;" parent="1" vertex="1">
                    <mxGeometry x="30" y="40" width="760" height="480" as="geometry"/>
                </mxCell>
                <mxCell id="8" value="&lt;span style=&quot;font-family: Helvetica, Arial, sans-serif; font-size: 17.5px; text-align: start;&quot;&gt;&lt;font color=&quot;#000000&quot;&gt;Click the button so the temperature of Ottawa is shown&lt;/font&gt;&lt;/span&gt;" style="text;html=1;strokeColor=none;fillColor=none;align=center;verticalAlign=middle;whiteSpace=wrap;rounded=0;" vertex="1" parent="7">
                    <mxGeometry x="-20" y="30" width="500" height="40" as="geometry"/>
                </mxCell>
                <mxCell id="9" value="Temperature" style="rounded=1;whiteSpace=wrap;html=1;labelBackgroundColor=none;fontColor=#000000;" vertex="1" parent="7">
                    <mxGeometry x="20" y="80" width="120" height="40" as="geometry"/>
                </mxCell>
                <mxCell id="10" value="*Temperature shown here*" style="text;html=1;strokeColor=none;fillColor=none;align=center;verticalAlign=middle;whiteSpace=wrap;rounded=0;labelBackgroundColor=none;fontColor=#000000;" vertex="1" parent="7">
                    <mxGeometry x="10" y="130" width="180" height="30" as="geometry"/>
                </mxCell>
                <mxCell id="11" value="Temperature chart" style="whiteSpace=wrap;html=1;aspect=fixed;labelBackgroundColor=none;fontColor=#000000;" vertex="1" parent="7">
                    <mxGeometry x="510" y="80" width="140" height="140" as="geometry"/>
                </mxCell>
            </root>
        </mxGraphModel>
    </diagram>
</mxfile>